<?xml version="1.0" encoding="UTF-8" standalone="no"?>
<!DOCTYPE svg PUBLIC "-//W3C//DTD SVG 1.1//EN" "http://www.w3.org/Graphics/SVG/1.1/DTD/svg11.dtd">
<svg width="1200.00" height="840.00" viewBox="0.00 0.00 5000.00 3500.00" xmlns="http://www.w3.org/2000/svg" xmlns:xlink="http://www.w3.org/1999/xlink">
<g stroke-linecap="round" id="Layer_6_Copy">
<path d="M3961.16,1608.42 C3961.16,1608.42 3749.60,1230.81 3644.68,926.40 C3582.98,747.37 3710.78,490.91 3958.70,492.17 C4199.18,493.38 4350.02,707.92 4270.27,941.12 C4230.48,1057.48 4177.69,1179.31 4127.01,1286.55 C4041.04,1468.47 3961.16,1608.42 3961.16,1608.42 Z" fill="none" stroke="rgb(225, 102, 48)" stroke-width="49.07" stroke-opacity="1.00" stroke-linejoin="round"/>
<path d="M3952.72,994.73 C3945.87,994.47 3929.18,991.86 3921.50,989.85 C3912.93,987.58 3899.17,981.86 3892.35,978.19 C3885.29,974.36 3872.31,965.52 3866.46,960.30 C3860.62,955.03 3850.02,943.34 3845.22,936.86 C3841.17,931.35 3833.14,916.60 3830.03,909.22 C3826.61,901.02 3822.85,887.82 3821.43,879.05 C3820.17,871.14 3819.22,854.37 3819.75,847.56 C3820.41,839.52 3823.25,824.00 3825.44,816.44 C3827.64,808.92 3834.01,794.56 3837.99,787.59 C3841.85,780.86 3850.52,768.75 3856.61,762.30 C3862.07,756.54 3874.87,745.52 3880.56,741.68 C3886.26,737.87 3901.29,730.17 3908.69,727.28 C3916.96,724.08 3931.45,720.62 3939.13,719.58 C3947.08,718.52 3962.79,718.05 3970.59,718.84 C3978.41,719.66 3993.85,722.89 4001.55,725.32 C4008.06,727.39 4023.23,734.60 4030.08,738.75 C4037.67,743.37 4048.47,751.83 4054.78,758.10 C4060.44,763.76 4071.07,776.77 4074.64,782.59 C4078.84,789.48 4085.66,803.71 4088.33,811.11 C4090.97,818.49 4094.26,833.85 4095.14,841.83 C4095.96,849.54 4096.07,864.44 4094.94,873.23 C4093.90,881.10 4090.02,897.54 4087.68,903.99 C4085.31,910.42 4077.67,925.49 4073.39,932.17 C4068.58,939.62 4058.89,950.94 4053.29,956.29 C4047.47,961.83 4035.05,971.44 4028.27,975.38 C4021.46,979.32 4007.07,985.78 3999.42,988.34 C3992.93,990.49 3976.41,993.58 3968.44,994.25 C3964.48,994.57 3955.72,994.83 3952.72,994.73 Z" fill="none" stroke="rgb(225, 102, 48)" stroke-width="40.89" stroke-opacity="1.00" stroke-linejoin="round"/>
<path d="M3943.99,1329.56 L3801.69,1025.35" fill="none" stroke="rgb(225, 102, 48)" stroke-width="196.26" stroke-opacity="1.00" stroke-linejoin="round"/>
<path d="M4192.59,847.08 L3960.34,1437.51" fill="none" stroke="rgb(225, 102, 48)" stroke-width="196.26" stroke-opacity="1.00" stroke-linejoin="round"/>
<path d="M3747.72,948.48 C3747.72,948.48 3721.55,786.56 3739.54,739.13 C3757.53,691.70 3841.46,629.39 3881.84,618.10 C3998.05,585.63 4008.58,623.44 4061.74,627.92 C4089.23,630.23 4168.05,727.69 4177.87,739.13 C4187.68,750.58 4208.94,920.68 4194.22,941.94 C4179.50,963.20 4074.83,1040.07 4060.11,1053.16 C4045.39,1066.24 3929.27,1097.32 3921.09,1102.22 C3912.91,1107.13 3832.77,1040.07 3827.86,1046.61" fill="none" stroke="rgb(225, 102, 48)" stroke-width="196.26" stroke-opacity="1.00" stroke-linejoin="round"/>
<path d="M3957.07,1551.99 L3958.71,1514.38" fill="none" stroke="rgb(225, 102, 48)" stroke-width="81.78" stroke-opacity="1.00" stroke-linejoin="round"/>
</g>
</svg>
