<?xml version="1.0" encoding="UTF-8" standalone="no"?>
<!DOCTYPE svg PUBLIC "-//W3C//DTD SVG 1.1//EN" "http://www.w3.org/Graphics/SVG/1.1/DTD/svg11.dtd">
<svg width="1200.00" height="840.00" viewBox="0.00 0.00 5000.00 3500.00" xmlns="http://www.w3.org/2000/svg" xmlns:xlink="http://www.w3.org/1999/xlink">
<g stroke-linecap="round" id="Layer_3">
<path d="M5656.00,3064.00 C5656.00,3064.00 5330.25,2415.06 4868.00,2084.00 C4610.08,1899.28 4311.98,1670.69 3760.00,1676.00 C3469.35,1678.80 3065.05,1751.72 2752.00,1976.00 C2406.50,2223.53 2229.69,2526.41 2060.00,2772.00 C1865.02,3054.19 1489.56,3649.52 412.00,3688.00 C-233.22,3711.04 -432.00,3564.00 -560.00,3564.00" fill="none" stroke="rgb(16, 100, 86)" stroke-width="600.00" stroke-opacity="1.00" stroke-linejoin="round"/>
<path d="M1824.00,3584.00 C1824.00,3584.00 2552.00,3328.00 2848.00,3040.00 C3144.00,2752.00 2672.00,2640.00 3200.00,2440.00 C3728.00,2240.00 3976.00,2304.00 4264.00,2424.00 C4552.00,2544.00 4752.00,2800.00 4840.00,2992.00 C4928.00,3184.00 4928.00,3408.00 4880.00,3520.00 C4832.00,3632.00 4440.00,3416.00 4088.00,3472.00 C3736.00,3528.00 3488.00,3368.00 3392.00,3368.00 C3296.00,3368.00 3464.00,3016.00 3696.00,2992.00 C3928.00,2968.00 4080.00,2968.00 4152.00,2968.00" fill="none" stroke="rgb(16, 100, 86)" stroke-width="1000.00" stroke-opacity="1.00" stroke-linejoin="round"/>
</g>
</svg>
