<?xml version="1.0" encoding="UTF-8" standalone="no"?>
<!DOCTYPE svg PUBLIC "-//W3C//DTD SVG 1.1//EN" "http://www.w3.org/Graphics/SVG/1.1/DTD/svg11.dtd">
<svg width="1200.00" height="840.00" viewBox="0.00 0.00 5000.00 3500.00" xmlns="http://www.w3.org/2000/svg" xmlns:xlink="http://www.w3.org/1999/xlink">
<g stroke-linecap="round" id="Layer_4">
<path d="M3963.08,1673.38 C3963.08,1673.38 3183.48,1745.18 3212.33,1928.28 C3235.65,2076.29 3632.86,2070.10 3914.78,2100.65 C4268.08,2138.93 4818.96,2245.16 4757.12,2648.42 C4691.01,3079.54 4193.19,3213.78 3857.51,3342.58 C3552.35,3459.67 3066.21,3541.54 2958.50,3895.13 C2845.24,4266.96 3227.71,4310.57 3311.34,4333.35" fill="none" stroke="rgb(235, 170, 144)" stroke-width="50.00" stroke-opacity="1.00" stroke-linejoin="round"/>
<path d="M3963.08,1673.38 C3398.53,1707.03 3197.72,1800.95 3137.11,1893.32 C3046.11,2032.01 3310.22,2087.21 3584.39,2117.64 C3927.85,2155.76 4633.01,2285.60 4578.68,2597.80 C4519.21,2939.55 3971.46,3065.31 3589.11,3191.87 C3289.19,3291.15 2709.39,3499.81 2594.66,3846.47 C2474.12,4210.70 2638.51,4263.82 2717.54,4285.85" fill="none" stroke="rgb(235, 170, 144)" stroke-width="50.00" stroke-opacity="1.00" stroke-linejoin="round"/>
<path d="M3260.35,1816.79 C3260.35,1816.79 3149.05,1908.78 3159.54,1934.07 C3170.10,1959.50 3221.31,2014.19 3264.98,2031.29" fill="none" stroke="rgb(235, 170, 144)" stroke-width="70.00" stroke-opacity="1.00" stroke-linejoin="round"/>
<path d="M4204.79,2197.79 C4204.79,2197.79 4351.89,2228.13 4444.68,2279.13 C4538.98,2330.95 4556.15,2369.83 4613.78,2417.93 C4683.84,2476.40 4729.25,2652.92 4643.79,2765.18 C4557.27,2878.85 4405.67,3019.15 4284.14,3081.91 C4162.43,3144.76 3925.76,3220.39 3802.34,3262.26 C3701.73,3296.40 3417.24,3412.64 3304.71,3454.28 C3192.32,3495.88 2969.53,3613.29 2878.82,3884.23 C2840.61,3998.39 2862.05,4177.68 2881.98,4230.31" fill="none" stroke="rgb(235, 170, 144)" stroke-width="120.00" stroke-opacity="1.00" stroke-linejoin="round"/>
<path d="M3716.74,2104.89 C3716.74,2104.89 4151.33,2182.08 4151.33,2182.08" fill="none" stroke="rgb(235, 170, 144)" stroke-width="60.00" stroke-opacity="1.00" stroke-linejoin="round"/>
<path d="M2681.02,4087.92 C2681.02,4087.92 2675.51,3937.58 2722.96,3831.64 C2769.78,3727.14 3028.18,3575.35 3125.62,3520.81 C3222.88,3466.38 3543.19,3341.49 3589.33,3320.63" fill="none" stroke="rgb(235, 170, 144)" stroke-width="200.00" stroke-opacity="1.00" stroke-linejoin="round"/>
<path d="M4588.79,2471.38 C4588.79,2471.38 4634.89,2534.91 4629.76,2612.14 C4624.57,2690.36 4581.89,2738.47 4556.56,2778.57 C4531.11,2818.87 4463.89,2873.02 4399.44,2913.15 C4292.76,2979.55 3800.56,3203.89 3617.22,3245.53" fill="none" stroke="rgb(235, 170, 144)" stroke-width="70.00" stroke-opacity="1.00" stroke-linejoin="round"/>
</g>
</svg>
