<?xml version="1.0" encoding="UTF-8" standalone="no"?>
<!DOCTYPE svg PUBLIC "-//W3C//DTD SVG 1.1//EN" "http://www.w3.org/Graphics/SVG/1.1/DTD/svg11.dtd">
<svg width="1200.00" height="840.00" viewBox="0.00 0.00 5000.00 3500.00" xmlns="http://www.w3.org/2000/svg" xmlns:xlink="http://www.w3.org/1999/xlink">
<g stroke-linecap="round" id="Layer_5_Copy">
<path d="M2315.00,1413.00 C2315.00,1413.00 2364.21,1272.18 2509.00,1300.00 C2585.21,1314.64 2631.83,1412.25 2617.00,1513.00 C2609.37,1564.84 2591.29,1649.74 2630.00,1701.00 C2650.37,1727.97 2674.00,1722.00 2684.00,1713.00" fill="none" stroke="rgb(7, 40, 40)" stroke-width="50.00" stroke-opacity="1.00" stroke-linejoin="round"/>
<path d="M2607.00,1594.00 C2602.92,1560.49 2602.72,1543.70 2559.00,1509.00 C2510.82,1470.77 2424.01,1479.02 2373.00,1513.00 C2330.61,1541.24 2296.98,1604.07 2330.00,1664.00 C2356.81,1712.66 2422.00,1726.00 2464.00,1725.00 C2506.00,1724.00 2549.03,1721.55 2582.00,1680.00 C2603.10,1653.41 2605.64,1610.88 2607.00,1594.00 Z" fill="none" stroke="rgb(7, 40, 40)" stroke-width="50.00" stroke-opacity="1.00" stroke-linejoin="round"/>
<path d="M2681.00,1436.00 C2681.00,1436.00 2694.93,1380.24 2721.00,1333.00 C2750.88,1278.84 2790.00,1260.00 2810.00,1340.00 C2823.60,1394.41 2807.00,1494.00 2799.00,1532.00 C2791.00,1570.00 2762.00,1682.00 2743.00,1726.00" fill="none" stroke="rgb(7, 40, 40)" stroke-width="50.00" stroke-opacity="1.00" stroke-linejoin="round"/>
<path d="M2803.00,1511.00 C2803.00,1511.00 2833.00,1372.00 2865.00,1333.00 C2897.00,1294.00 2946.21,1268.36 2989.00,1299.00 C3026.23,1325.66 3035.28,1371.04 3030.00,1438.50 C3024.54,1508.28 3013.53,1528.08 3000.00,1603.00 C2986.31,1678.77 2998.00,1758.00 3055.00,1714.00" fill="none" stroke="rgb(7, 40, 40)" stroke-width="50.00" stroke-opacity="1.00" stroke-linejoin="round"/>
<path d="M3463.00,1430.00 C3434.01,1578.29 3644.54,1557.62 3702.00,1522.00 C3762.50,1484.50 3772.50,1450.50 3774.00,1398.50 C3775.18,1357.72 3749.02,1288.72 3667.00,1286.50 C3615.55,1285.11 3567.91,1297.91 3526.00,1337.00 C3475.15,1384.43 3460.00,1421.00 3451.00,1489.00 C3442.58,1552.64 3452.99,1634.90 3499.00,1676.00 C3558.17,1728.87 3646.00,1728.98 3679.00,1719.00 C3738.33,1701.05 3787.50,1634.00 3732.00,1601.50" fill="none" stroke="rgb(7, 40, 40)" stroke-width="50.00" stroke-opacity="1.00" stroke-linejoin="round"/>
<path d="M2136.00,1917.00 C2106.01,2069.29 2293.25,2051.15 2373.00,2014.00 C2421.81,1991.26 2443.50,1942.50 2445.00,1890.50 C2446.18,1849.72 2419.93,1783.02 2338.00,1778.50 C2294.55,1776.11 2244.91,1787.91 2197.00,1829.00 C2144.22,1874.27 2131.00,1913.00 2122.00,1981.00 C2113.58,2044.64 2120.99,2129.90 2167.00,2171.00 C2226.17,2223.87 2317.00,2220.98 2350.00,2211.00 C2409.33,2193.05 2458.50,2126.00 2403.00,2093.50" fill="none" stroke="rgb(7, 40, 40)" stroke-width="50.00" stroke-opacity="1.00" stroke-linejoin="round"/>
<path d="M3835.00,1436.00 C3835.00,1436.00 3848.93,1380.24 3875.00,1333.00 C3904.88,1278.84 3944.00,1260.00 3964.00,1340.00 C3977.60,1394.41 3961.00,1496.00 3953.00,1534.00 C3945.00,1572.00 3916.00,1682.00 3897.00,1726.00" fill="none" stroke="rgb(7, 40, 40)" stroke-width="50.00" stroke-opacity="1.00" stroke-linejoin="round"/>
<path d="M3961.00,1493.00 C3961.00,1493.00 3987.00,1372.00 4019.00,1333.00 C4051.00,1294.00 4100.02,1268.64 4143.00,1299.00 C4189.23,1331.66 4132.78,1436.04 4207.50,1408.00" fill="none" stroke="rgb(7, 40, 40)" stroke-width="50.00" stroke-opacity="1.00" stroke-linejoin="round"/>
<path d="M2538.00,2085.00 C2533.00,2086.00 2474.00,2115.00 2495.00,2155.00 C2514.82,2192.75 2587.10,2219.74 2660.00,2216.00 C2738.00,2212.00 2786.11,2199.26 2816.00,2146.00 C2848.66,2087.81 2825.66,2044.17 2809.00,1991.00 C2791.99,1936.72 2787.00,1875.00 2793.00,1829.00 C2796.77,1800.09 2830.00,1766.00 2859.00,1801.00" fill="none" stroke="rgb(7, 40, 40)" stroke-width="50.00" stroke-opacity="1.00" stroke-linejoin="round"/>
<path d="M2789.00,1897.50 C2788.92,1890.99 2789.14,1846.18 2747.50,1809.00 C2701.32,1767.77 2627.01,1781.02 2576.00,1815.00 C2533.61,1843.24 2499.98,1906.07 2533.00,1966.00 C2559.81,2014.66 2625.00,2028.00 2667.00,2027.00 C2709.00,2026.00 2742.66,2011.32 2764.50,1983.00 C2786.25,1954.81 2787.64,1914.38 2789.00,1897.50 Z" fill="none" stroke="rgb(7, 40, 40)" stroke-width="50.00" stroke-opacity="1.00" stroke-linejoin="round"/>
<path d="M3452.50,1313.50 C3452.50,1313.50 3410.43,1223.49 3372.00,1367.00 C3358.16,1418.68 3355.40,1435.77 3354.00,1493.00 C3352.74,1544.40 3361.29,1650.74 3400.00,1702.00 C3420.37,1728.97 3444.00,1723.00 3454.00,1714.00" fill="none" stroke="rgb(7, 40, 40)" stroke-width="50.00" stroke-opacity="1.00" stroke-linejoin="round"/>
<path d="M3356.00,1596.50 C3355.92,1589.99 3356.13,1545.81 3312.50,1511.00 C3263.32,1471.77 3194.01,1480.02 3143.00,1514.00 C3100.61,1542.24 3066.98,1605.07 3100.00,1665.00 C3126.81,1713.66 3192.00,1727.00 3234.00,1726.00 C3276.00,1725.00 3304.72,1715.23 3332.50,1679.00 C3358.52,1645.06 3354.64,1613.38 3356.00,1596.50 Z" fill="none" stroke="rgb(7, 40, 40)" stroke-width="50.00" stroke-opacity="1.00" stroke-linejoin="round"/>
<path d="M612.00,1236.00 C616.51,1254.60 627.68,1300.82 634.35,1328.43 C638.50,1345.32 647.41,1379.92 652.16,1397.64 C657.51,1416.08 668.82,1453.67 674.78,1472.82 C680.79,1491.08 691.56,1523.22 696.33,1537.09 C706.70,1565.85 728.54,1624.69 740.02,1654.78 C746.18,1670.32 758.70,1701.53 765.07,1717.20 C771.51,1732.60 784.47,1763.11 790.99,1778.22 C797.59,1793.04 810.85,1822.41 817.51,1836.95 C824.26,1851.21 838.55,1880.93 846.11,1896.39 C855.00,1913.92 872.92,1948.51 881.94,1965.57 C891.08,1982.15 909.49,2014.85 918.75,2030.97 C936.50,2060.51 967.82,2112.57 981.41,2135.10 C986.55,2143.64 994.35,2156.59 997.00,2161.00 C1012.42,2144.98 1051.87,2103.84 1075.90,2078.72 C1088.54,2064.99 1113.77,2037.17 1126.36,2023.08 C1136.89,2010.95 1157.64,1986.79 1167.86,1974.74 C1188.19,1949.91 1228.48,1900.05 1248.43,1875.03 C1268.61,1849.41 1311.68,1794.29 1334.58,1764.79 C1354.97,1738.17 1386.68,1696.78 1398.00,1682.00" fill="none" stroke="rgb(7, 40, 40)" stroke-width="300.00" stroke-opacity="1.00" stroke-linejoin="round"/>
<path d="M2179.00,1236.00 C2174.49,1254.60 2163.32,1300.82 2156.65,1328.43 C2152.50,1345.32 2143.59,1379.92 2138.84,1397.64 C2133.49,1416.08 2122.18,1453.67 2116.22,1472.82 C2110.21,1491.08 2099.44,1523.22 2094.67,1537.09 C2084.30,1565.85 2062.46,1624.69 2050.98,1654.78 C2044.82,1670.32 2032.30,1701.53 2025.93,1717.20 C2019.49,1732.60 2006.53,1763.11 2000.01,1778.22 C1993.41,1793.04 1980.15,1822.41 1973.49,1836.95 C1966.74,1851.21 1952.45,1880.93 1944.89,1896.39 C1936.00,1913.92 1918.08,1948.51 1909.06,1965.57 C1899.92,1982.15 1881.51,2014.85 1872.25,2030.97 C1854.50,2060.51 1823.18,2112.57 1809.59,2135.10 C1804.45,2143.64 1796.65,2156.59 1794.00,2161.00 C1778.58,2144.98 1739.13,2103.84 1715.10,2078.72 C1702.46,2064.99 1677.23,2037.17 1664.64,2023.08 C1654.11,2010.95 1633.36,1986.79 1623.14,1974.74 C1602.81,1949.91 1562.52,1900.05 1542.57,1875.03 C1522.39,1849.41 1479.32,1794.29 1456.42,1764.79 C1436.03,1738.17 1404.32,1696.78 1393.00,1682.00" fill="none" stroke="rgb(7, 40, 40)" stroke-width="300.00" stroke-opacity="1.00" stroke-linejoin="round"/>
<path d="M1405.50,1750.50 C1405.50,1750.50 1276.15,1519.62 1212.00,1333.50 C1174.27,1224.04 1252.41,1067.23 1404.00,1068.00 C1551.03,1068.74 1643.26,1199.92 1594.50,1342.50 C1584.99,1370.31 1574.26,1398.63 1562.88,1426.73 C1495.71,1592.46 1405.50,1750.50 1405.50,1750.50 Z" fill="none" stroke="rgb(225, 102, 48)" stroke-width="30.00" stroke-opacity="1.00" stroke-linejoin="round"/>
<path d="M1400.34,1375.28 C1393.45,1375.01 1377.18,1371.49 1370.89,1368.78 C1363.80,1365.68 1351.07,1357.56 1345.58,1352.35 C1340.13,1347.14 1331.29,1335.53 1327.63,1328.07 C1325.95,1324.61 1322.95,1316.98 1322.08,1313.95 C1320.20,1307.31 1318.52,1290.75 1319.16,1283.93 C1319.91,1276.22 1323.70,1261.61 1326.96,1254.78 C1330.23,1247.99 1338.54,1235.99 1344.50,1230.21 C1347.28,1227.53 1353.61,1222.32 1356.22,1220.56 C1361.95,1216.72 1377.18,1210.01 1383.87,1208.51 C1391.43,1206.84 1406.50,1205.93 1414.00,1206.92 C1421.47,1207.93 1435.45,1212.13 1442.79,1216.01 C1446.19,1217.82 1453.10,1222.23 1455.59,1224.17 C1461.01,1228.44 1472.09,1240.85 1475.59,1246.74 C1479.51,1253.42 1485.04,1267.47 1486.42,1274.91 C1487.76,1282.33 1488.08,1296.92 1486.67,1305.10 C1485.99,1308.89 1483.93,1316.83 1482.86,1319.79 C1480.47,1326.27 1472.10,1340.65 1467.57,1345.80 C1462.44,1351.59 1450.78,1361.18 1444.13,1364.79 C1437.49,1368.36 1423.71,1373.18 1415.49,1374.36 C1411.68,1374.89 1403.49,1375.38 1400.34,1375.28 Z" fill="none" stroke="rgb(225, 102, 48)" stroke-width="25.00" stroke-opacity="1.00" stroke-linejoin="round"/>
<path d="M1395.00,1580.00 L1308.00,1394.00" fill="none" stroke="rgb(225, 102, 48)" stroke-width="120.00" stroke-opacity="1.00" stroke-linejoin="round"/>
<path d="M1547.00,1285.00 L1405.00,1646.00" fill="none" stroke="rgb(225, 102, 48)" stroke-width="120.00" stroke-opacity="1.00" stroke-linejoin="round"/>
<path d="M1275.00,1347.00 C1275.00,1347.00 1259.00,1248.00 1270.00,1219.00 C1281.00,1190.00 1332.31,1151.90 1357.00,1145.00 C1428.06,1125.15 1434.50,1148.26 1467.00,1151.00 C1483.81,1152.41 1532.00,1212.00 1538.00,1219.00 C1544.00,1226.00 1557.00,1330.00 1548.00,1343.00 C1539.00,1356.00 1475.00,1403.00 1466.00,1411.00 C1457.00,1419.00 1386.00,1438.00 1381.00,1441.00 C1376.00,1444.00 1327.00,1403.00 1324.00,1407.00" fill="none" stroke="rgb(225, 102, 48)" stroke-width="120.00" stroke-opacity="1.00" stroke-linejoin="round"/>
<path d="M1403.00,1716.00 L1404.00,1693.00" fill="none" stroke="rgb(225, 102, 48)" stroke-width="50.00" stroke-opacity="1.00" stroke-linejoin="round"/>
</g>
</svg>
